<svg version="1.1" xmlns="http://www.w3.org/2000/svg" xmlns:xlink="http://www.w3.org/1999/xlink" viewBox="0 0 226 226"><g fill="none" fill-rule="nonzero" stroke="none" stroke-width="1" stroke-linecap="butt" stroke-linejoin="miter" stroke-miterlimit="10" stroke-dasharray="" stroke-dashoffset="0" font-family="none" font-weight="none" font-size="none" text-anchor="none" style="mix-blend-mode: normal"><path d="M0,226v-226h226v226z" fill="none"></path><g fill="#1e3cd2"><path d="M178.18467,28.26103c-4.34785,0 -8.6957,1.65527 -11.99522,4.95479l-20.45918,20.45918l-102.95801,102.94697l-16.61894,43.21367l43.22471,-16.60791l0.41933,-0.43037l122.98682,-122.98682c6.59902,-6.59902 6.59902,-17.38037 0,-23.96836l-2.62637,-2.62637c-3.28848,-3.29951 -7.63633,-4.95479 -11.97314,-4.95479zM178.18467,33.87793c2.88018,0 5.76035,1.11455 7.98945,3.33262l2.61533,2.61533c4.43613,4.44717 4.43613,11.55381 0,15.98994l-2.33945,2.33945l-18.60527,-18.60527l2.33945,-2.33945c2.21807,-2.21807 5.10928,-3.33262 8.00049,-3.33262zM163.85,43.54473l18.60527,18.60527l-10.13027,10.13027l-18.60527,-18.60527zM149.725,57.66973l18.60527,18.60527l-98.67637,98.67637c-0.49658,-1.55596 -1.26904,-3.21123 -2.68154,-4.62373c-2.07461,-2.07461 -4.68994,-2.83603 -6.74248,-3.24434c-0.65107,-0.13242 -0.65107,-0.06621 -1.18076,-0.13242c-0.06621,-0.52969 0,-0.52969 -0.13242,-1.18076c-0.4083,-2.05254 -1.16973,-4.66787 -3.24434,-6.74248c-1.4125,-1.4125 -3.06777,-2.18496 -4.62373,-2.68154zM149.725,64.975c-1.55596,0 -2.825,1.26904 -2.825,2.825c0,1.55596 1.26904,2.825 2.825,2.825c1.55596,0 2.825,-1.26904 2.825,-2.825c0,-1.55596 -1.26904,-2.825 -2.825,-2.825zM141.25,73.45c-1.55596,0 -2.825,1.26904 -2.825,2.825c0,1.55596 1.26904,2.825 2.825,2.825c1.55596,0 2.825,-1.26904 2.825,-2.825c0,-1.55596 -1.26904,-2.825 -2.825,-2.825zM132.775,81.925c-1.55596,0 -2.825,1.26904 -2.825,2.825c0,1.55596 1.26904,2.825 2.825,2.825c1.55596,0 2.825,-1.26904 2.825,-2.825c0,-1.55596 -1.26904,-2.825 -2.825,-2.825zM124.3,90.4c-1.55596,0 -2.825,1.26904 -2.825,2.825c0,1.55596 1.26904,2.825 2.825,2.825c1.55596,0 2.825,-1.26904 2.825,-2.825c0,-1.55596 -1.26904,-2.825 -2.825,-2.825zM115.825,98.875c-1.55596,0 -2.825,1.26904 -2.825,2.825c0,1.55596 1.26904,2.825 2.825,2.825c1.55596,0 2.825,-1.26904 2.825,-2.825c0,-1.55596 -1.26904,-2.825 -2.825,-2.825zM107.35,107.35c-1.55596,0 -2.825,1.26904 -2.825,2.825c0,1.55596 1.26904,2.825 2.825,2.825c1.55596,0 2.825,-1.26904 2.825,-2.825c0,-1.55596 -1.26904,-2.825 -2.825,-2.825zM98.875,115.825c-1.55596,0 -2.825,1.26904 -2.825,2.825c0,1.55596 1.26904,2.825 2.825,2.825c1.55596,0 2.825,-1.26904 2.825,-2.825c0,-1.55596 -1.26904,-2.825 -2.825,-2.825zM90.4,124.3c-1.55596,0 -2.825,1.26904 -2.825,2.825c0,1.55596 1.26904,2.825 2.825,2.825c1.55596,0 2.825,-1.26904 2.825,-2.825c0,-1.55596 -1.26904,-2.825 -2.825,-2.825zM81.925,132.775c-1.55596,0 -2.825,1.26904 -2.825,2.825c0,1.55596 1.26904,2.825 2.825,2.825c1.55596,0 2.825,-1.26904 2.825,-2.825c0,-1.55596 -1.26904,-2.825 -2.825,-2.825zM73.45,141.25c-1.55596,0 -2.825,1.26904 -2.825,2.825c0,1.55596 1.26904,2.825 2.825,2.825c1.55596,0 2.825,-1.26904 2.825,-2.825c0,-1.55596 -1.26904,-2.825 -2.825,-2.825zM64.975,149.725c-1.55596,0 -2.825,1.26904 -2.825,2.825c0,1.55596 1.26904,2.825 2.825,2.825c1.55596,0 2.825,-1.26904 2.825,-2.825c0,-1.55596 -1.26904,-2.825 -2.825,-2.825zM47.06494,161.2126c0.26484,0.04414 0.46348,0.05518 0.76143,0.11035c1.47871,0.29795 3.10088,0.94902 3.85127,1.69941c0.75039,0.75039 1.40147,2.37256 1.69941,3.85127c0.29795,1.47871 0.29795,2.62637 0.29795,2.62637v2.825h2.825c0,0 1.14766,0 2.62637,0.29795c1.47871,0.29795 3.10088,0.94902 3.85127,1.69941c0.75039,0.75039 1.40147,2.37256 1.69941,3.85127c0.05518,0.29795 0.06621,0.49658 0.11035,0.76143l-19.57637,7.52598l-5.67207,-5.67207z"></path></g></g></svg>